<svg width="24" height="24" viewBox="0 0 24 24" xmlns="http://www.w3.org/2000/svg">
<path d="M19.7606 3.67993L7.54963 1.52368C7.1579 1.45475 6.75483 1.54422 6.42906 1.77242C6.10329 2.00061 5.88149 2.34885 5.81244 2.74056L3.02338 18.5843C2.98926 18.7784 2.99373 18.9773 3.03653 19.1697C3.07932 19.3621 3.15961 19.5441 3.27279 19.7054C3.38597 19.8668 3.52983 20.0042 3.69616 20.1099C3.86248 20.2156 4.048 20.2875 4.24213 20.3215L16.4531 22.4777C16.6472 22.512 16.8462 22.5076 17.0387 22.4649C17.2312 22.4222 17.4134 22.3419 17.5748 22.2287C17.7362 22.1155 17.8738 21.9716 17.9795 21.8052C18.0853 21.6388 18.1572 21.4532 18.1912 21.259L20.9803 5.41524C21.0486 5.02339 20.9585 4.62045 20.7297 4.29502C20.501 3.9696 20.1524 3.74835 19.7606 3.67993ZM12.7031 12.334C12.6725 12.5075 12.5817 12.6647 12.4468 12.778C12.3119 12.8913 12.1414 12.9535 11.9653 12.9537C11.9213 12.9537 11.8774 12.9499 11.834 12.9424L7.94338 12.2552C7.75848 12.2098 7.59779 12.0957 7.49392 11.9361C7.39006 11.7765 7.35077 11.5834 7.38405 11.3959C7.41732 11.2084 7.52066 11.0406 7.6731 10.9265C7.82555 10.8124 8.01568 10.7606 8.20494 10.7815L12.0937 11.4649C12.1908 11.4819 12.2836 11.5179 12.3668 11.5708C12.45 11.6236 12.5219 11.6924 12.5785 11.7731C12.6351 11.8538 12.6753 11.9449 12.6966 12.0412C12.718 12.1374 12.7202 12.2369 12.7031 12.334ZM17.1093 10.0671C17.0787 10.2405 16.9882 10.3975 16.8534 10.5108C16.7187 10.6241 16.5485 10.6864 16.3724 10.6868C16.3281 10.6869 16.2838 10.6828 16.2403 10.6746L8.459 9.30118C8.26307 9.2665 8.08895 9.1554 7.97493 8.99233C7.86091 8.82926 7.81635 8.62758 7.85103 8.43165C7.88572 8.23572 7.99681 8.0616 8.15988 7.94758C8.32295 7.83356 8.52463 7.789 8.72056 7.82368L16.5018 9.19806C16.599 9.21493 16.6919 9.25082 16.7752 9.30365C16.8585 9.35649 16.9306 9.42524 16.9873 9.50597C17.044 9.5867 17.0842 9.67782 17.1056 9.77411C17.127 9.8704 17.1292 9.96997 17.1121 10.0671H17.1093ZM17.6296 7.11212C17.599 7.28562 17.5083 7.44281 17.3734 7.55611C17.2385 7.66942 17.068 7.73162 16.8918 7.73181C16.8478 7.73175 16.8039 7.72798 16.7606 7.72056L8.97931 6.34618C8.88009 6.33158 8.7848 6.29722 8.69908 6.24514C8.61337 6.19307 8.53897 6.12432 8.48029 6.04299C8.42161 5.96165 8.37983 5.86937 8.35744 5.7716C8.33505 5.67384 8.3325 5.57258 8.34993 5.47381C8.36737 5.37504 8.40443 5.28077 8.45894 5.19658C8.51345 5.11239 8.58429 5.03998 8.66727 4.98365C8.75025 4.92732 8.84369 4.8882 8.94205 4.86862C9.04041 4.84903 9.14171 4.84937 9.23994 4.86962L17.0212 6.24306C17.1185 6.25983 17.2115 6.29563 17.2949 6.34842C17.3783 6.40121 17.4505 6.46994 17.5072 6.55068C17.564 6.63142 17.6043 6.72258 17.6258 6.81892C17.6473 6.91527 17.6495 7.0149 17.6324 7.11212H17.6296Z"/>
</svg>
