<svg viewBox="0 0 90 90" fill="none" xmlns="http://www.w3.org/2000/svg">
<path d="M45 9C23.46 9 6 23.775 6 42C6 50.0284 9.39667 57.3783 15.0293 63.0996C15.143 63.3826 18.033 70.82 9.47461 78.4043C9.3247 78.5447 9.20522 78.7144 9.12358 78.9029C9.04194 79.0914 8.99988 79.2946 9 79.5C9 79.8978 9.15804 80.2794 9.43934 80.5607C9.72064 80.842 10.1022 81 10.5 81C10.6084 81 10.7164 80.9882 10.8223 80.9648C19.4498 80.4537 26.8304 76.1722 31.3359 72.873C35.5941 74.2234 40.1845 75 45 75C66.54 75 84 60.225 84 42C84 23.775 66.54 9 45 9ZM45 22.5C47.484 22.5 49.5 24.516 49.5 27C49.5 29.484 47.484 31.5 45 31.5C42.516 31.5 40.5 29.484 40.5 27C40.5 24.516 42.516 22.5 45 22.5ZM42 39H48V60H42V39Z"/>
</svg>
