<svg viewBox="0 0 24 24" fill="none" xmlns="http://www.w3.org/2000/svg">
<path d="M12 22C11.45 22 10.9793 21.8043 10.588 21.413C10.1967 21.0217 10.0007 20.5507 10 20V12C10 11.45 10.196 10.9793 10.588 10.588C10.98 10.1967 11.4507 10.0007 12 10H20C20.55 10 21.021 10.196 21.413 10.588C21.805 10.98 22.0007 11.4507 22 12V20C22 20.55 21.8043 21.021 21.413 21.413C21.0217 21.805 20.5507 22.0007 20 22H12ZM13.5 19H18.475C18.6917 19 18.846 18.9083 18.938 18.725C19.03 18.5417 19.009 18.3667 18.875 18.2L17.6 16.525C17.5 16.3917 17.3667 16.325 17.2 16.325C17.0333 16.325 16.9 16.3917 16.8 16.525L15.5 18.25L14.7 17.15C14.6 17.0167 14.4667 16.95 14.3 16.95C14.1333 16.95 14 17.0167 13.9 17.15L13.1 18.2C12.9667 18.3667 12.95 18.5417 13.05 18.725C13.15 18.9083 13.3 19 13.5 19ZM8 17.75C6.21667 17.3 4.771 16.354 3.663 14.912C2.555 13.47 2.00067 11.8327 2 10C2 7.76667 2.775 5.875 4.325 4.325C5.875 2.775 7.76667 2 10 2C11.8333 2 13.471 2.554 14.913 3.662C16.355 4.77 17.3007 6.216 17.75 8H12C10.9 8 9.95833 8.39167 9.175 9.175C8.39167 9.95833 8 10.9 8 12V17.75Z" fill="currentColor"/>
</svg>
