<svg viewBox="0 0 90 90" fill="none" xmlns="http://www.w3.org/2000/svg">
<path d="M17.9004 9C14.6766 9 12 11.6767 12 14.9004V22.1602C11.0102 22.7079 10.1005 23.4069 9.36911 24.3047C7.66847 26.3903 6.98982 29.1366 7.52926 31.7754V31.7812C9.1229 39.5341 11.3383 50.3161 11.4785 51C11.3385 51.6827 9.13184 62.4182 7.54098 70.1719C6.99714 72.8237 7.68107 75.5816 9.38668 77.6777V77.6836C11.0968 79.7796 13.6632 81 16.3711 81H73.5058C76.2421 81 78.8362 79.7665 80.5664 77.6484V77.6426C82.2942 75.5221 82.9848 72.7344 82.4355 70.0547C80.845 62.3056 78.6608 51.6798 78.5215 51C78.6617 50.3158 80.8797 39.5179 82.4707 31.7637C83.0106 29.1316 82.3364 26.3845 80.6367 24.2988L80.6308 24.293C79.899 23.3959 78.9904 22.7002 78 22.1543V14.9004C78 11.6767 75.3233 9 72.0996 9H17.9004ZM18 15H72V21H18V15ZM36.3164 39.2402C37.6964 39.2402 38.9558 39.4053 40.0898 39.7383C41.2268 40.0713 42.2035 40.5666 43.0195 41.2266C43.8355 41.8866 44.4708 42.7038 44.9238 43.6758C45.3768 44.6478 45.5976 45.7756 45.5976 47.0566C45.5976 47.6476 45.5111 48.2296 45.3281 48.8086C45.1451 49.3846 44.8765 49.9275 44.5195 50.4375C44.3755 50.6415 44.1602 50.8139 43.9922 51.0059H33.1992V55.1719H36.0937C36.7837 55.1719 37.4077 55.2502 37.9687 55.4062C38.5267 55.5623 39.0025 55.8058 39.3925 56.1328C39.7825 56.4598 40.0762 56.8823 40.2832 57.4043C40.4902 57.9263 40.5937 58.5474 40.5937 59.2734C40.5937 59.8374 40.5015 60.3496 40.3125 60.8086C40.1235 61.2676 39.8492 61.6592 39.4922 61.9922C39.1352 62.3252 38.6985 62.5858 38.1855 62.7598C37.6695 62.9368 37.096 63.0234 36.457 63.0234C35.878 63.0234 35.3435 62.9368 34.8515 62.7598C34.3625 62.5828 33.94 62.3422 33.58 62.0332C33.223 61.7242 32.9432 61.3576 32.7422 60.9316C32.5412 60.5056 32.4433 60.0355 32.4433 59.5195H27C27 60.8755 27.2687 62.0423 27.8027 63.0293C28.3367 64.0133 29.0391 64.8304 29.9121 65.4844C30.7851 66.1384 31.7755 66.6255 32.8945 66.9375C34.0105 67.2525 35.1552 67.4062 36.3222 67.4062C37.7022 67.4062 38.9838 67.2242 40.1718 66.8672C41.3568 66.5102 42.3869 65.9926 43.2539 65.3086C44.1209 64.6246 44.7979 63.7823 45.2929 62.7773C45.7879 61.7723 46.0371 60.6306 46.0371 59.3496C46.0371 57.8436 45.6594 56.5395 44.9004 55.4355C44.1414 54.3315 42.9883 53.5032 41.4433 52.9512C42.1093 52.6512 42.6969 52.2816 43.2129 51.8496C43.5219 51.5886 43.743 51.2909 43.998 51.0059H57.5566V67.0312H63V51H57.5566V46.0605L51.0586 48.0762V43.6523L62.414 39.5801H63V51H72.3984L72.5215 51.6035C72.5215 51.6035 74.9116 63.2661 76.5527 71.2617C76.7388 72.1782 76.51 73.1244 75.9199 73.8516C75.322 74.5835 74.4476 75 73.5058 75H16.3711C15.4609 75 14.6149 74.5926 14.039 73.8867C13.4674 73.1814 13.2362 72.2651 13.4179 71.3789C15.059 63.3805 17.4785 51.6035 17.4785 51.6035L17.6015 51H33.1933H36C37.059 51 38.501 50.5709 39.164 49.8809C39.827 49.1909 40.1601 48.2728 40.1601 47.1328C40.1601 46.6318 40.0875 46.1616 39.9375 45.7266C39.7875 45.2946 39.5521 44.9193 39.2461 44.6133C38.9371 44.3073 38.5568 44.0696 38.0918 43.8926C37.6268 43.7156 37.0781 43.6289 36.4511 43.6289C35.9501 43.6289 35.4802 43.6958 35.0332 43.8398C34.5892 43.9838 34.1943 44.1911 33.8613 44.4551C33.5283 44.7191 33.2653 45.0409 33.0703 45.4219C32.8753 45.8059 32.7832 46.2339 32.7832 46.7109H27.3398C27.3398 45.5799 27.5719 44.5558 28.0429 43.6348C28.5139 42.7138 29.1548 41.9302 29.9648 41.2852C30.7748 40.6372 31.7263 40.1363 32.8183 39.7793C33.9103 39.4223 35.0744 39.2402 36.3164 39.2402Z"/>
</svg>
