<svg viewBox="0 0 24 24" fill="none" xmlns="http://www.w3.org/2000/svg">
<path fill-rule="evenodd" clip-rule="evenodd" d="M20.0001 3.2001H12.8001V11.2001H20.8001V4.0001C20.8001 3.78792 20.7158 3.58444 20.5658 3.43441C20.4158 3.28438 20.2123 3.2001 20.0001 3.2001ZM20.8001 12.8001H12.8001V20.8001H20.0001C20.2123 20.8001 20.4158 20.7158 20.5658 20.5658C20.7158 20.4158 20.8001 20.2123 20.8001 20.0001V12.8001ZM11.2001 11.2001V3.2001H4.0001C3.78792 3.2001 3.58444 3.28438 3.43441 3.43441C3.28438 3.58444 3.2001 3.78792 3.2001 4.0001V11.2001H11.2001ZM3.2001 12.8001V20.0001C3.2001 20.2123 3.28438 20.4158 3.43441 20.5658C3.58444 20.7158 3.78792 20.8001 4.0001 20.8001H11.2001V12.8001H3.2001ZM4.0001 1.6001C3.36358 1.6001 2.75313 1.85295 2.30304 2.30304C1.85295 2.75313 1.6001 3.36358 1.6001 4.0001V20.0001C1.6001 20.6366 1.85295 21.2471 2.30304 21.6972C2.75313 22.1472 3.36358 22.4001 4.0001 22.4001H20.0001C20.6366 22.4001 21.2471 22.1472 21.6972 21.6972C22.1472 21.2471 22.4001 20.6366 22.4001 20.0001V4.0001C22.4001 3.36358 22.1472 2.75313 21.6972 2.30304C21.2471 1.85295 20.6366 1.6001 20.0001 1.6001H4.0001Z" fill="curentColor"/>
</svg>
