<svg viewBox="0 0 90 90" fill="none" xmlns="http://www.w3.org/2000/svg">
<path d="M45 6C44.2158 6.00005 43.4629 6.30712 42.9023 6.85547L10.1777 33.6211C10.1399 33.6495 10.1028 33.6788 10.0664 33.709L9.95508 33.8027V33.8086C9.65419 34.0889 9.41414 34.4281 9.24984 34.8051C9.08554 35.182 9.0005 35.5888 9 36C9 36.7956 9.31607 37.5587 9.87868 38.1213C10.4413 38.6839 11.2044 39 12 39H15V72C15 75.315 17.685 78 21 78H69C72.315 78 75 75.315 75 72V39H78C78.7956 39 79.5587 38.6839 80.1213 38.1213C80.6839 37.5587 81 36.7956 81 36C81.0003 35.5878 80.9156 35.1799 80.7513 34.8019C80.587 34.4238 80.3465 34.0837 80.0449 33.8027L79.998 33.7676C79.9322 33.7079 79.8638 33.6512 79.793 33.5977L75 29.6777V18C75 16.344 73.656 15 72 15H69C67.344 15 66 16.344 66 18V22.3184L47.0332 6.80273C46.4805 6.28898 45.7546 6.00236 45 6ZM54 45H66V69H54V45Z"/>
</svg>
