<svg viewBox="0 0 114 22" fill="none" xmlns="http://www.w3.org/2000/svg">
<path d="M30.8379 11.4375V4.16602C30.8379 4.00586 30.8906 3.87109 30.9961 3.76172C31.1016 3.65234 31.2305 3.59766 31.3828 3.59766H33.7676C33.9199 3.59766 34.0645 3.65234 34.2012 3.76172C34.3379 3.87109 34.4297 4.00195 34.4766 4.1543L36.2051 9.1582L37.9336 4.1543C37.9805 4.00195 38.0723 3.87109 38.209 3.76172C38.3457 3.65234 38.4902 3.59766 38.6426 3.59766H41.0273C41.1797 3.59766 41.3066 3.65234 41.4082 3.76172C41.5137 3.87109 41.5664 4.00586 41.5664 4.16602V11.4375C41.5664 11.5977 41.5117 11.7324 41.4023 11.8418C41.2969 11.9473 41.168 12 41.0156 12H39.9609C39.8086 12 39.6777 11.9473 39.5684 11.8418C39.4629 11.7324 39.4102 11.5977 39.4102 11.4375V5.71289L37.3418 11.4727C37.2871 11.6172 37.1914 11.7422 37.0547 11.8477C36.918 11.9492 36.7734 12 36.6211 12H35.7832C35.6309 12 35.4863 11.9492 35.3496 11.8477C35.2168 11.7422 35.1211 11.6172 35.0625 11.4727L33 5.71289V11.4375C33 11.5977 32.9453 11.7324 32.8359 11.8418C32.7305 11.9473 32.6016 12 32.4492 12H31.3945C31.2422 12 31.1113 11.9473 31.002 11.8418C30.8926 11.7324 30.8379 11.5977 30.8379 11.4375ZM43.248 11.4609V4.1543C43.248 4.00195 43.3027 3.87109 43.4121 3.76172C43.5215 3.65234 43.6523 3.59766 43.8047 3.59766H44.8945C45.0547 3.59766 45.1875 3.65234 45.293 3.76172C45.4023 3.87109 45.457 4.00195 45.457 4.1543V11.4492C45.457 11.6016 45.4004 11.7324 45.2871 11.8418C45.1777 11.9473 45.0469 12 44.8945 12H43.8047C43.6523 12 43.5215 11.9492 43.4121 11.8477C43.3027 11.7422 43.248 11.6133 43.248 11.4609ZM47.1387 11.4492V4.1543C47.1387 4.00195 47.1914 3.87109 47.2969 3.76172C47.4023 3.65234 47.5312 3.59766 47.6836 3.59766H49.4062C49.543 3.59766 49.6875 3.65234 49.8398 3.76172C49.9922 3.87109 50.1172 4.00195 50.2148 4.1543L53.7539 9.59766V4.14258C53.7539 3.99023 53.8066 3.86133 53.9121 3.75586C54.0215 3.65039 54.1523 3.59766 54.3047 3.59766H55.3125C55.4648 3.59766 55.5938 3.65039 55.6992 3.75586C55.8086 3.86133 55.8633 3.99414 55.8633 4.1543V11.4492C55.8633 11.6016 55.8086 11.7324 55.6992 11.8418C55.5938 11.9473 55.4648 12 55.3125 12H53.3672C53.2148 12 53.0586 11.9473 52.8984 11.8418C52.7383 11.7324 52.6113 11.6016 52.5176 11.4492L49.2773 6.42188V11.4492C49.2773 11.6016 49.2227 11.7324 49.1133 11.8418C49.0078 11.9473 48.8789 12 48.7266 12H47.6953C47.543 12 47.4121 11.9473 47.3027 11.8418C47.1934 11.7324 47.1387 11.6016 47.1387 11.4492ZM66.2402 11.7422C66.2402 11.9141 66.1387 12 65.9355 12H64.5938C64.4414 12 64.2773 11.9473 64.1016 11.8418C63.9258 11.7324 63.7891 11.6016 63.6914 11.4492L62.6602 9.81445C62.4141 9.41602 62.166 9.11719 61.916 8.91797C61.666 8.71484 61.3652 8.61328 61.0137 8.61328H59.7539V11.4609C59.7539 11.6133 59.6992 11.7422 59.5898 11.8477C59.4844 11.9492 59.3555 12 59.2031 12H58.1016C57.9492 12 57.8184 11.9453 57.709 11.8359C57.5996 11.7227 57.5449 11.5898 57.5449 11.4375V4.1543C57.5449 4.00195 57.5996 3.86914 57.709 3.75586C57.8184 3.64258 57.9492 3.58594 58.1016 3.58594H59.2031C59.3555 3.58594 59.4844 3.64258 59.5898 3.75586C59.6992 3.86914 59.7539 4.00195 59.7539 4.1543V6.96094H61.0137C61.3574 6.96094 61.6582 6.86719 61.916 6.67969C62.1777 6.49219 62.4258 6.18945 62.6602 5.77148L63.5684 4.1543C63.7754 3.7793 64.0566 3.58984 64.4121 3.58594H65.7656C65.9531 3.58594 66.0469 3.66797 66.0469 3.83203C66.0469 3.92187 66.0137 4.0293 65.9473 4.1543L64.6758 6.45703C64.4922 6.79297 64.2852 7.07031 64.0547 7.28906C63.8281 7.50781 63.5312 7.66211 63.1641 7.75195C63.4219 7.80664 63.6855 7.96875 63.9551 8.23828C64.2285 8.50781 64.4688 8.80078 64.6758 9.11719L66.1406 11.4492C66.207 11.5625 66.2402 11.6602 66.2402 11.7422ZM66.3926 11.4609L67.8633 5.88281C68.2617 4.36328 69.5586 3.60156 71.7539 3.59766H74.9121C75.0566 3.59766 75.1758 3.65234 75.2695 3.76172C75.3672 3.87109 75.416 3.99805 75.416 4.14258V11.4609C75.416 11.6133 75.3613 11.7422 75.252 11.8477C75.1426 11.9492 75.0117 12 74.8594 12H73.7578C73.5977 12 73.4648 11.9492 73.3594 11.8477C73.2578 11.7422 73.207 11.6094 73.207 11.4492V9.97266H69.041L68.6484 11.4492C68.6094 11.6094 68.5215 11.7422 68.3848 11.8477C68.248 11.9492 68.1035 12 67.9512 12H66.7969C66.6445 12 66.5352 11.957 66.4688 11.8711C66.4023 11.7812 66.3691 11.7031 66.3691 11.6367C66.373 11.5703 66.3809 11.5117 66.3926 11.4609ZM69.4746 8.31445H73.207V5.25586H71.5371C71.1621 5.25586 70.834 5.36328 70.5527 5.57812C70.2754 5.78906 70.0879 6.07422 69.9902 6.43359L69.4746 8.31445ZM77.0918 11.4492V4.1543C77.0918 4.00195 77.1445 3.87109 77.25 3.76172C77.3555 3.65234 77.4844 3.59766 77.6367 3.59766H82.1074C84.4707 3.59766 85.6523 4.6875 85.6523 6.86719C85.6523 9.04297 84.4707 10.1309 82.1074 10.1309H79.3008V11.4492C79.3008 11.6016 79.2461 11.7324 79.1367 11.8418C79.0312 11.9473 78.9023 12 78.75 12H77.6484C77.4961 12 77.3652 11.9473 77.2559 11.8418C77.1465 11.7324 77.0918 11.6016 77.0918 11.4492ZM79.3008 8.47266H81.4395C82.0957 8.47266 82.5938 8.36328 82.9336 8.14453C83.2734 7.92188 83.4434 7.49609 83.4434 6.86719C83.4434 6.23438 83.2734 5.80859 82.9336 5.58984C82.5938 5.36719 82.0957 5.25586 81.4395 5.25586H79.3008V8.47266ZM86.6191 8.67773V4.1543C86.6191 4.00195 86.6719 3.87109 86.7773 3.76172C86.8867 3.65234 87.0215 3.59766 87.1816 3.59766H88.2773C88.4258 3.59766 88.5547 3.65234 88.6641 3.76172C88.7734 3.87109 88.8281 4.00195 88.8281 4.1543V8.68945C88.8281 9.26367 88.9531 9.69141 89.2031 9.97266C89.457 10.2539 89.8477 10.3945 90.375 10.3945H91.3125C91.8398 10.3945 92.2285 10.2539 92.4785 9.97266C92.7324 9.69141 92.8594 9.26367 92.8594 8.68945V4.1543C92.8594 4.00195 92.9121 3.87109 93.0176 3.76172C93.127 3.65234 93.2578 3.59766 93.4102 3.59766H94.5C94.6602 3.59766 94.7949 3.65234 94.9043 3.76172C95.0137 3.87109 95.0684 4.00195 95.0684 4.1543V8.67773C95.0684 9.74805 94.7539 10.5781 94.125 11.168C93.4961 11.7539 92.5781 12.0469 91.3711 12.0469H90.3164C89.1055 12.0469 88.1855 11.7539 87.5566 11.168C86.9316 10.5781 86.6191 9.74805 86.6191 8.67773ZM96.627 11.4609V4.16602C96.627 4.00586 96.6816 3.87109 96.791 3.76172C96.9004 3.65234 97.0312 3.59766 97.1836 3.59766H98.2852C98.4375 3.59766 98.5664 3.65234 98.6719 3.76172C98.7812 3.87109 98.8359 4.00586 98.8359 4.16602V10.3418H103.939C104.092 10.3418 104.221 10.3965 104.326 10.5059C104.436 10.6152 104.49 10.7461 104.49 10.8984V11.4492C104.49 11.6016 104.436 11.7324 104.326 11.8418C104.221 11.9473 104.092 12 103.939 12H97.1836C97.0312 12 96.9004 11.9492 96.791 11.8477C96.6816 11.7422 96.627 11.6133 96.627 11.4609ZM105.451 11.4609V4.16602C105.451 4.00586 105.506 3.87109 105.615 3.76172C105.725 3.65234 105.855 3.59766 106.008 3.59766H107.109C107.262 3.59766 107.391 3.65234 107.496 3.76172C107.605 3.87109 107.66 4.00586 107.66 4.16602V10.3418H112.764C112.916 10.3418 113.045 10.3965 113.15 10.5059C113.26 10.6152 113.314 10.7461 113.314 10.8984V11.4492C113.314 11.6016 113.26 11.7324 113.15 11.8418C113.045 11.9473 112.916 12 112.764 12H106.008C105.855 12 105.725 11.9492 105.615 11.8477C105.506 11.7422 105.451 11.6133 105.451 11.4609Z" fill="#4B39EF"/>
<path d="M31.918 15.4453V19H31.4468V15.4453H31.918ZM34.0151 15.4453V19H33.5513V15.4453H34.0151ZM35.1577 15.4453V15.8311H32.4111V15.4453H35.1577ZM37.2085 15.4453V19.6592H36.8447V15.4453H37.2085ZM41.1831 18.1016C41.1831 18.0186 41.1701 17.9453 41.144 17.8818C41.1196 17.8167 41.0757 17.7581 41.0122 17.7061C40.9504 17.654 40.8641 17.6043 40.7534 17.5571C40.6444 17.5099 40.506 17.4619 40.3384 17.4131C40.1626 17.361 40.0039 17.3032 39.8623 17.2397C39.7207 17.1746 39.5994 17.1006 39.4985 17.0176C39.3976 16.9346 39.3203 16.8394 39.2666 16.7319C39.2129 16.6245 39.186 16.5016 39.186 16.3633C39.186 16.2249 39.2145 16.0972 39.2715 15.98C39.3285 15.8628 39.4098 15.7611 39.5156 15.6748C39.623 15.5869 39.7508 15.5186 39.8989 15.4697C40.047 15.4209 40.2122 15.3965 40.3945 15.3965C40.6615 15.3965 40.8877 15.4478 41.0732 15.5503C41.2604 15.6512 41.4028 15.7839 41.5005 15.9482C41.5981 16.111 41.647 16.2852 41.647 16.4707H41.1782C41.1782 16.3372 41.1497 16.2192 41.0928 16.1167C41.0358 16.0125 40.9495 15.9312 40.834 15.8726C40.7184 15.8123 40.5719 15.7822 40.3945 15.7822C40.2269 15.7822 40.0885 15.8075 39.9795 15.8579C39.8704 15.9084 39.7891 15.9767 39.7354 16.063C39.6833 16.1493 39.6572 16.2477 39.6572 16.3584C39.6572 16.4333 39.6727 16.5016 39.7036 16.5635C39.7362 16.6237 39.7858 16.6799 39.8525 16.7319C39.9209 16.784 40.0072 16.832 40.1113 16.876C40.2171 16.9199 40.3433 16.9622 40.4897 17.0029C40.6916 17.0599 40.8657 17.1234 41.0122 17.1934C41.1587 17.2633 41.2791 17.3423 41.3735 17.4302C41.4696 17.5164 41.5404 17.6149 41.5859 17.7256C41.6331 17.8346 41.6567 17.9583 41.6567 18.0967C41.6567 18.2415 41.6274 18.3726 41.5688 18.4897C41.5103 18.6069 41.4264 18.707 41.3174 18.79C41.2083 18.873 41.0773 18.9373 40.9243 18.9829C40.7729 19.0269 40.6037 19.0488 40.4165 19.0488C40.2521 19.0488 40.0902 19.026 39.9307 18.9805C39.7728 18.9349 39.6287 18.8665 39.4985 18.7754C39.37 18.6842 39.2666 18.5719 39.1885 18.4385C39.112 18.3034 39.0737 18.1471 39.0737 17.9697H39.5425C39.5425 18.0918 39.5661 18.1968 39.6133 18.2847C39.6605 18.3709 39.7248 18.4425 39.8062 18.4995C39.8892 18.5565 39.9827 18.5988 40.0869 18.6265C40.1927 18.6525 40.3026 18.6655 40.4165 18.6655C40.5809 18.6655 40.7201 18.6427 40.834 18.5972C40.9479 18.5516 41.0342 18.4865 41.0928 18.4019C41.153 18.3172 41.1831 18.2171 41.1831 18.1016ZM44.4033 17.8696H44.8721C44.8477 18.0942 44.7834 18.2952 44.6792 18.4727C44.575 18.6501 44.4277 18.7909 44.2373 18.895C44.0469 18.9976 43.8092 19.0488 43.5244 19.0488C43.3161 19.0488 43.1265 19.0098 42.9556 18.9316C42.7863 18.8535 42.6406 18.7428 42.5186 18.5996C42.3965 18.4548 42.3021 18.2814 42.2354 18.0796C42.1702 17.8761 42.1377 17.6499 42.1377 17.4009V17.0469C42.1377 16.7979 42.1702 16.5724 42.2354 16.3706C42.3021 16.1672 42.3973 15.993 42.521 15.8481C42.6463 15.7033 42.7969 15.5918 42.9727 15.5137C43.1484 15.4355 43.3462 15.3965 43.5659 15.3965C43.8345 15.3965 44.0615 15.4469 44.2471 15.5479C44.4326 15.6488 44.5767 15.7887 44.6792 15.9678C44.7834 16.1452 44.8477 16.3511 44.8721 16.5854H44.4033C44.3805 16.4194 44.3382 16.277 44.2764 16.1582C44.2145 16.0378 44.1266 15.945 44.0127 15.8799C43.8988 15.8148 43.7498 15.7822 43.5659 15.7822C43.408 15.7822 43.2689 15.8123 43.1484 15.8726C43.0296 15.9328 42.9295 16.0182 42.8481 16.1289C42.7684 16.2396 42.7082 16.3722 42.6675 16.5269C42.6268 16.6815 42.6064 16.8532 42.6064 17.042V17.4009C42.6064 17.575 42.6243 17.7386 42.6602 17.8916C42.6976 18.0446 42.7537 18.1789 42.8286 18.2944C42.9035 18.41 42.9987 18.5011 43.1143 18.5679C43.2298 18.633 43.3665 18.6655 43.5244 18.6655C43.7246 18.6655 43.8841 18.6338 44.0029 18.5703C44.1217 18.5068 44.2113 18.4157 44.2715 18.2969C44.3333 18.1781 44.3773 18.0356 44.4033 17.8696ZM46.0195 15.4453V19H45.5483V15.4453H46.0195ZM49.1348 18.6167V19H47.2524V18.6167H49.1348ZM47.3477 15.4453V19H46.8765V15.4453H47.3477ZM48.8857 16.9736V17.3569H47.2524V16.9736H48.8857ZM49.1104 15.4453V15.8311H47.2524V15.4453H49.1104ZM52.4526 15.4453V19H51.979L50.1895 16.2583V19H49.7183V15.4453H50.1895L51.9863 18.1943V15.4453H52.4526ZM55.4336 17.8696H55.9023C55.8779 18.0942 55.8136 18.2952 55.7095 18.4727C55.6053 18.6501 55.458 18.7909 55.2676 18.895C55.0771 18.9976 54.8395 19.0488 54.5547 19.0488C54.3464 19.0488 54.1567 19.0098 53.9858 18.9316C53.8166 18.8535 53.6709 18.7428 53.5488 18.5996C53.4268 18.4548 53.3324 18.2814 53.2656 18.0796C53.2005 17.8761 53.168 17.6499 53.168 17.4009V17.0469C53.168 16.7979 53.2005 16.5724 53.2656 16.3706C53.3324 16.1672 53.4276 15.993 53.5513 15.8481C53.6766 15.7033 53.8271 15.5918 54.0029 15.5137C54.1787 15.4355 54.3765 15.3965 54.5962 15.3965C54.8647 15.3965 55.0918 15.4469 55.2773 15.5479C55.4629 15.6488 55.6069 15.7887 55.7095 15.9678C55.8136 16.1452 55.8779 16.3511 55.9023 16.5854H55.4336C55.4108 16.4194 55.3685 16.277 55.3066 16.1582C55.2448 16.0378 55.1569 15.945 55.043 15.8799C54.929 15.8148 54.7801 15.7822 54.5962 15.7822C54.4383 15.7822 54.2992 15.8123 54.1787 15.8726C54.0599 15.9328 53.9598 16.0182 53.8784 16.1289C53.7987 16.2396 53.7384 16.3722 53.6978 16.5269C53.6571 16.6815 53.6367 16.8532 53.6367 17.042V17.4009C53.6367 17.575 53.6546 17.7386 53.6904 17.8916C53.7279 18.0446 53.784 18.1789 53.8589 18.2944C53.9338 18.41 54.029 18.5011 54.1445 18.5679C54.2601 18.633 54.3968 18.6655 54.5547 18.6655C54.7549 18.6655 54.9144 18.6338 55.0332 18.5703C55.152 18.5068 55.2415 18.4157 55.3018 18.2969C55.3636 18.1781 55.4076 18.0356 55.4336 17.8696ZM58.8027 18.6167V19H56.9204V18.6167H58.8027ZM57.0156 15.4453V19H56.5444V15.4453H57.0156ZM58.5537 16.9736V17.3569H56.9204V16.9736H58.5537ZM58.7783 15.4453V15.8311H56.9204V15.4453H58.7783ZM61.0073 15.4453V19.6592H60.6436V15.4453H61.0073ZM65.2334 17.8696H65.7021C65.6777 18.0942 65.6134 18.2952 65.5093 18.4727C65.4051 18.6501 65.2578 18.7909 65.0674 18.895C64.877 18.9976 64.6393 19.0488 64.3545 19.0488C64.1462 19.0488 63.9565 19.0098 63.7856 18.9316C63.6164 18.8535 63.4707 18.7428 63.3486 18.5996C63.2266 18.4548 63.1322 18.2814 63.0654 18.0796C63.0003 17.8761 62.9678 17.6499 62.9678 17.4009V17.0469C62.9678 16.7979 63.0003 16.5724 63.0654 16.3706C63.1322 16.1672 63.2274 15.993 63.3511 15.8481C63.4764 15.7033 63.627 15.5918 63.8027 15.5137C63.9785 15.4355 64.1763 15.3965 64.396 15.3965C64.6646 15.3965 64.8916 15.4469 65.0771 15.5479C65.2627 15.6488 65.4067 15.7887 65.5093 15.9678C65.6134 16.1452 65.6777 16.3511 65.7021 16.5854H65.2334C65.2106 16.4194 65.1683 16.277 65.1064 16.1582C65.0446 16.0378 64.9567 15.945 64.8428 15.8799C64.7288 15.8148 64.5799 15.7822 64.396 15.7822C64.2381 15.7822 64.099 15.8123 63.9785 15.8726C63.8597 15.9328 63.7596 16.0182 63.6782 16.1289C63.5985 16.2396 63.5382 16.3722 63.4976 16.5269C63.4569 16.6815 63.4365 16.8532 63.4365 17.042V17.4009C63.4365 17.575 63.4544 17.7386 63.4902 17.8916C63.5277 18.0446 63.5838 18.1789 63.6587 18.2944C63.7336 18.41 63.8288 18.5011 63.9443 18.5679C64.0599 18.633 64.1966 18.6655 64.3545 18.6655C64.5547 18.6655 64.7142 18.6338 64.833 18.5703C64.9518 18.5068 65.0413 18.4157 65.1016 18.2969C65.1634 18.1781 65.2074 18.0356 65.2334 17.8696ZM69.0811 17.1104V17.335C69.0811 17.6019 69.0477 17.8411 68.981 18.0527C68.9142 18.2643 68.8182 18.4442 68.6929 18.5923C68.5675 18.7404 68.417 18.8535 68.2412 18.9316C68.0671 19.0098 67.8717 19.0488 67.6553 19.0488C67.4453 19.0488 67.2524 19.0098 67.0767 18.9316C66.9025 18.8535 66.7511 18.7404 66.6226 18.5923C66.4956 18.4442 66.3971 18.2643 66.3271 18.0527C66.2572 17.8411 66.2222 17.6019 66.2222 17.335V17.1104C66.2222 16.8434 66.2563 16.605 66.3247 16.395C66.3947 16.1834 66.4932 16.0036 66.6201 15.8555C66.7471 15.7057 66.8976 15.5918 67.0718 15.5137C67.2476 15.4355 67.4404 15.3965 67.6504 15.3965C67.8669 15.3965 68.0622 15.4355 68.2363 15.5137C68.4121 15.5918 68.5627 15.7057 68.688 15.8555C68.8149 16.0036 68.9118 16.1834 68.9785 16.395C69.0469 16.605 69.0811 16.8434 69.0811 17.1104ZM68.6147 17.335V17.1055C68.6147 16.8939 68.5928 16.7067 68.5488 16.5439C68.5065 16.3812 68.4438 16.2445 68.3608 16.1338C68.2778 16.0231 68.1761 15.9393 68.0557 15.8823C67.9368 15.8254 67.8018 15.7969 67.6504 15.7969C67.5039 15.7969 67.3713 15.8254 67.2524 15.8823C67.1353 15.9393 67.0343 16.0231 66.9497 16.1338C66.8667 16.2445 66.8024 16.3812 66.7568 16.5439C66.7113 16.7067 66.6885 16.8939 66.6885 17.1055V17.335C66.6885 17.5482 66.7113 17.737 66.7568 17.9014C66.8024 18.0641 66.8675 18.2017 66.9521 18.314C67.0384 18.4246 67.1401 18.5085 67.2573 18.5654C67.3761 18.6224 67.5088 18.6509 67.6553 18.6509C67.8083 18.6509 67.9442 18.6224 68.063 18.5654C68.1818 18.5085 68.2819 18.4246 68.3633 18.314C68.4463 18.2017 68.509 18.0641 68.5513 17.9014C68.5936 17.737 68.6147 17.5482 68.6147 17.335ZM69.9355 15.4453H70.3921L71.5566 18.3433L72.7188 15.4453H73.1777L71.7324 19H71.376L69.9355 15.4453ZM69.7866 15.4453H70.1895L70.2554 17.6133V19H69.7866V15.4453ZM72.9214 15.4453H73.3242V19H72.8555V17.6133L72.9214 15.4453ZM74.3008 15.4453H74.7573L75.9219 18.3433L77.084 15.4453H77.543L76.0977 19H75.7412L74.3008 15.4453ZM74.1519 15.4453H74.5547L74.6206 17.6133V19H74.1519V15.4453ZM77.2866 15.4453H77.6895V19H77.2207V17.6133L77.2866 15.4453ZM80.5508 15.4453H81.0195V17.8501C81.0195 18.117 80.9601 18.3392 80.8413 18.5166C80.7225 18.694 80.5646 18.8275 80.3677 18.917C80.1724 19.0049 79.96 19.0488 79.7305 19.0488C79.4896 19.0488 79.2715 19.0049 79.0762 18.917C78.8825 18.8275 78.7287 18.694 78.6147 18.5166C78.5024 18.3392 78.4463 18.117 78.4463 17.8501V15.4453H78.9126V17.8501C78.9126 18.0356 78.9468 18.1886 79.0151 18.3091C79.0835 18.4295 79.1787 18.519 79.3008 18.5776C79.4245 18.6362 79.5677 18.6655 79.7305 18.6655C79.8949 18.6655 80.0381 18.6362 80.1602 18.5776C80.2839 18.519 80.3799 18.4295 80.4482 18.3091C80.5166 18.1886 80.5508 18.0356 80.5508 17.8501V15.4453ZM84.4937 15.4453V19H84.02L82.2305 16.2583V19H81.7593V15.4453H82.2305L84.0273 18.1943V15.4453H84.4937ZM85.834 15.4453V19H85.3628V15.4453H85.834ZM88.8369 17.8696H89.3057C89.2812 18.0942 89.217 18.2952 89.1128 18.4727C89.0086 18.6501 88.8613 18.7909 88.6709 18.895C88.4805 18.9976 88.2428 19.0488 87.958 19.0488C87.7497 19.0488 87.5601 19.0098 87.3892 18.9316C87.2199 18.8535 87.0742 18.7428 86.9521 18.5996C86.8301 18.4548 86.7357 18.2814 86.6689 18.0796C86.6038 17.8761 86.5713 17.6499 86.5713 17.4009V17.0469C86.5713 16.7979 86.6038 16.5724 86.6689 16.3706C86.7357 16.1672 86.8309 15.993 86.9546 15.8481C87.0799 15.7033 87.2305 15.5918 87.4062 15.5137C87.582 15.4355 87.7798 15.3965 87.9995 15.3965C88.2681 15.3965 88.4951 15.4469 88.6807 15.5479C88.8662 15.6488 89.0103 15.7887 89.1128 15.9678C89.217 16.1452 89.2812 16.3511 89.3057 16.5854H88.8369C88.8141 16.4194 88.7718 16.277 88.71 16.1582C88.6481 16.0378 88.5602 15.945 88.4463 15.8799C88.3324 15.8148 88.1834 15.7822 87.9995 15.7822C87.8416 15.7822 87.7025 15.8123 87.582 15.8726C87.4632 15.9328 87.3631 16.0182 87.2817 16.1289C87.202 16.2396 87.1418 16.3722 87.1011 16.5269C87.0604 16.6815 87.04 16.8532 87.04 17.042V17.4009C87.04 17.575 87.0579 17.7386 87.0938 17.8916C87.1312 18.0446 87.1873 18.1789 87.2622 18.2944C87.3371 18.41 87.4323 18.5011 87.5479 18.5679C87.6634 18.633 87.8001 18.6655 87.958 18.6655C88.1582 18.6655 88.3177 18.6338 88.4365 18.5703C88.5553 18.5068 88.6449 18.4157 88.7051 18.2969C88.7669 18.1781 88.8109 18.0356 88.8369 17.8696ZM91.2637 15.7603L90.0869 19H89.606L90.9609 15.4453H91.271L91.2637 15.7603ZM92.25 19L91.0708 15.7603L91.0635 15.4453H91.3735L92.7334 19H92.25ZM92.189 17.6841V18.0698H90.1919V17.6841H92.189ZM94.2056 15.4453V19H93.7417V15.4453H94.2056ZM95.3481 15.4453V15.8311H92.6016V15.4453H95.3481ZM96.3809 15.4453V19H95.9097V15.4453H96.3809ZM99.9746 17.1104V17.335C99.9746 17.6019 99.9412 17.8411 99.8745 18.0527C99.8078 18.2643 99.7118 18.4442 99.5864 18.5923C99.4611 18.7404 99.3105 18.8535 99.1348 18.9316C98.9606 19.0098 98.7653 19.0488 98.5488 19.0488C98.3389 19.0488 98.146 19.0098 97.9702 18.9316C97.7961 18.8535 97.6447 18.7404 97.5161 18.5923C97.3892 18.4442 97.2907 18.2643 97.2207 18.0527C97.1507 17.8411 97.1157 17.6019 97.1157 17.335V17.1104C97.1157 16.8434 97.1499 16.605 97.2183 16.395C97.2882 16.1834 97.3867 16.0036 97.5137 15.8555C97.6406 15.7057 97.7912 15.5918 97.9653 15.5137C98.1411 15.4355 98.334 15.3965 98.5439 15.3965C98.7604 15.3965 98.9557 15.4355 99.1299 15.5137C99.3057 15.5918 99.4562 15.7057 99.5815 15.8555C99.7085 16.0036 99.8053 16.1834 99.8721 16.395C99.9404 16.605 99.9746 16.8434 99.9746 17.1104ZM99.5083 17.335V17.1055C99.5083 16.8939 99.4863 16.7067 99.4424 16.5439C99.4001 16.3812 99.3374 16.2445 99.2544 16.1338C99.1714 16.0231 99.0697 15.9393 98.9492 15.8823C98.8304 15.8254 98.6953 15.7969 98.5439 15.7969C98.3975 15.7969 98.2648 15.8254 98.146 15.8823C98.0288 15.9393 97.9279 16.0231 97.8433 16.1338C97.7603 16.2445 97.696 16.3812 97.6504 16.5439C97.6048 16.7067 97.582 16.8939 97.582 17.1055V17.335C97.582 17.5482 97.6048 17.737 97.6504 17.9014C97.696 18.0641 97.7611 18.2017 97.8457 18.314C97.932 18.4246 98.0337 18.5085 98.1509 18.5654C98.2697 18.6224 98.4023 18.6509 98.5488 18.6509C98.7018 18.6509 98.8377 18.6224 98.9565 18.5654C99.0754 18.5085 99.1755 18.4246 99.2568 18.314C99.3398 18.2017 99.4025 18.0641 99.4448 17.9014C99.4871 17.737 99.5083 17.5482 99.5083 17.335ZM103.415 15.4453V19H102.941L101.151 16.2583V19H100.68V15.4453H101.151L102.948 18.1943V15.4453H103.415Z" fill="#9185FF"/>
<line x1="26.5" x2="26.5" y2="22" stroke="#342A93"/>
<g clip-path="url(#clip0_1356_14)">
<path d="M11 22C17.0751 22 22 17.0751 22 11C22 4.92487 17.0751 0 11 0C4.92487 0 0 4.92487 0 11C0 17.0751 4.92487 22 11 22Z" fill="url(#paint0_linear_1356_14)"/>
<path d="M11.0002 20.1666C5.94571 20.1666 1.8335 16.0544 1.8335 10.9999C1.8335 5.94544 5.94571 1.83325 11.0002 1.83325C16.0548 1.83325 20.1668 5.94544 20.1668 10.9999C20.1668 16.0544 16.0548 20.1666 11.0002 20.1666Z" fill="url(#paint1_linear_1356_14)"/>
<path opacity="0.3" d="M6.1875 6.2041V16.4836H16.5V6.2041H6.1875ZM7.82333 14.7717L9.38751 13.2074L7.82333 11.6432L8.11497 11.3516L9.97081 13.2074L8.11497 15.0634L7.82333 14.7717ZM12.1937 15.1238H9.67917V14.7113H12.1937V15.1238Z" fill="black"/>
<path d="M5.84375 5.86035V16.1399H16.1562V5.86035H5.84375ZM7.47958 14.428L9.04376 12.8637L7.47958 11.2994L7.77122 11.0078L9.62706 12.8637L7.77122 14.7196L7.47958 14.428ZM11.85 14.78H9.33542V14.3675H11.85V14.78Z" fill="white"/>
</g>
<defs>
<linearGradient id="paint0_linear_1356_14" x1="-1.16016e-07" y1="11" x2="22" y2="11" gradientUnits="userSpaceOnUse">
<stop stop-color="#7162FF"/>
<stop offset="1" stop-color="#4B39EF"/>
</linearGradient>
<linearGradient id="paint1_linear_1356_14" x1="1.8335" y1="10.9999" x2="20.1668" y2="10.9999" gradientUnits="userSpaceOnUse">
<stop stop-color="#4B39EF"/>
<stop offset="1" stop-color="#7D6FFF"/>
</linearGradient>
<clipPath id="clip0_1356_14">
<rect width="22" height="22" fill="white"/>
</clipPath>
</defs>
</svg>
