<svg viewBox="0 0 30 30" fill="none" xmlns="http://www.w3.org/2000/svg">
<path d="M2.26333 12.1593C2.61494 11.8078 3.09177 11.6104 3.58896 11.6104C4.08614 11.6104 4.56297 11.8078 4.91458 12.1593L11.5446 18.7893L24.8008 5.5312C24.9749 5.35699 25.1816 5.21878 25.4091 5.12445C25.6366 5.03013 25.8805 4.98153 26.1267 4.98145C26.373 4.98136 26.6169 5.02978 26.8445 5.12395C27.072 5.21811 27.2788 5.35618 27.453 5.53026C27.6272 5.70435 27.7654 5.91104 27.8598 6.13854C27.9541 6.36603 28.0027 6.60988 28.0028 6.85616C28.0029 7.10244 27.9544 7.34633 27.8603 7.57389C27.7661 7.80145 27.628 8.00824 27.454 8.18245L11.5446 24.0918L2.26333 14.8106C1.91182 14.459 1.71436 13.9821 1.71436 13.485C1.71436 12.9878 1.91182 12.5109 2.26333 12.1593Z"/>
</svg>
