<svg viewBox="0 0 40 40" fill="none" xmlns="http://www.w3.org/2000/svg">
<path fill-rule="evenodd" clip-rule="evenodd" d="M2.0835 11.6667C2.0835 10.9764 2.64315 10.4167 3.3335 10.4167H16.6668C17.3572 10.4167 17.9168 10.9764 17.9168 11.6667C17.9168 12.3571 17.3572 12.9167 16.6668 12.9167H3.3335C2.64315 12.9167 2.0835 12.3571 2.0835 11.6667ZM2.0835 20.0001C2.0835 19.3097 2.64315 18.7501 3.3335 18.7501H13.3335C14.0238 18.7501 14.5835 19.3097 14.5835 20.0001C14.5835 20.6904 14.0238 21.2501 13.3335 21.2501H3.3335C2.64315 21.2501 2.0835 20.6904 2.0835 20.0001ZM2.0835 28.3334C2.0835 27.6431 2.64315 27.0834 3.3335 27.0834H16.6668C17.3572 27.0834 17.9168 27.6431 17.9168 28.3334C17.9168 29.0237 17.3572 29.5834 16.6668 29.5834H3.3335C2.64315 29.5834 2.0835 29.0237 2.0835 28.3334Z"/>
<path d="M20.0947 25.6201C19.8518 26.1128 20.0924 26.692 20.6319 26.9136C21.1716 27.1353 21.8059 26.9157 22.0486 26.423L20.0947 25.6201ZM27.5 12.9782L28.477 12.5768C28.304 12.2258 27.9216 12 27.5 12C27.0784 12 26.696 12.2258 26.523 12.5768L27.5 12.9782ZM32.9514 26.423C33.1941 26.9157 33.8284 27.1353 34.3681 26.9136C34.9076 26.692 35.1482 26.1128 34.9053 25.6201L32.9514 26.423ZM23.4093 20.3002C22.8176 20.3002 22.3379 20.7382 22.3379 21.2785C22.3379 21.8189 22.8176 22.2567 23.4093 22.2567V20.3002ZM22.0486 26.423L28.477 13.3797L26.523 12.5768L20.0947 25.6201L22.0486 26.423ZM34.9053 25.6201L32.5678 20.8771L30.6138 21.68L32.9514 26.423L34.9053 25.6201ZM32.5678 20.8771L28.477 12.5768L26.523 13.3797L30.6138 21.68L32.5678 20.8771ZM31.5907 20.3002H23.4093V22.2567H31.5907V20.3002Z"/>
</svg>
