<svg viewBox="0 0 40 40" fill="none" xmlns="http://www.w3.org/2000/svg">
<path fill-rule="evenodd" clip-rule="evenodd" d="M2.0835 11.6667C2.0835 10.9764 2.64315 10.4167 3.3335 10.4167H16.6668C17.3572 10.4167 17.9168 10.9764 17.9168 11.6667C17.9168 12.3571 17.3572 12.9167 16.6668 12.9167H3.3335C2.64315 12.9167 2.0835 12.3571 2.0835 11.6667ZM2.0835 20.0001C2.0835 19.3097 2.64315 18.7501 3.3335 18.7501H13.3335C14.0238 18.7501 14.5835 19.3097 14.5835 20.0001C14.5835 20.6904 14.0238 21.2501 13.3335 21.2501H3.3335C2.64315 21.2501 2.0835 20.6904 2.0835 20.0001ZM2.0835 28.3334C2.0835 27.6431 2.64315 27.0834 3.3335 27.0834H16.6668C17.3572 27.0834 17.9168 27.6431 17.9168 28.3334C17.9168 29.0237 17.3572 29.5834 16.6668 29.5834H3.3335C2.64315 29.5834 2.0835 29.0237 2.0835 28.3334Z"/>
<path d="M28.5 17.6C27.8128 17.6 27.1538 17.8529 26.668 18.3029C26.1821 18.753 25.9091 19.3635 25.9091 20C25.9091 20.6365 26.1821 21.247 26.668 21.6971C27.1538 22.1471 27.8128 22.4 28.5 22.4C29.1872 22.4 29.8462 22.1471 30.332 21.6971C30.8179 21.247 31.0909 20.6365 31.0909 20C31.0909 19.3635 30.8179 18.753 30.332 18.3029C29.8462 17.8529 29.1872 17.6 28.5 17.6ZM28.5 24C27.3547 24 26.2564 23.5786 25.4466 22.8284C24.6368 22.0783 24.1818 21.0609 24.1818 20C24.1818 18.9391 24.6368 17.9217 25.4466 17.1716C26.2564 16.4214 27.3547 16 28.5 16C29.6453 16 30.7436 16.4214 31.5534 17.1716C32.3632 17.9217 32.8182 18.9391 32.8182 20C32.8182 21.0609 32.3632 22.0783 31.5534 22.8284C30.7436 23.5786 29.6453 24 28.5 24ZM28.5 14C24.1818 14 20.4941 16.488 19 20C20.4941 23.512 24.1818 26 28.5 26C32.8182 26 36.5059 23.512 38 20C36.5059 16.488 32.8182 14 28.5 14Z" />
</svg>
