<svg viewBox="0 0 40 40" fill="none" xmlns="http://www.w3.org/2000/svg">
<path fill-rule="evenodd" clip-rule="evenodd" d="M2.0835 11.6667C2.0835 10.9764 2.64315 10.4167 3.3335 10.4167H16.6668C17.3572 10.4167 17.9168 10.9764 17.9168 11.6667C17.9168 12.3571 17.3572 12.9167 16.6668 12.9167H3.3335C2.64315 12.9167 2.0835 12.3571 2.0835 11.6667ZM28.3335 12.9167C24.4215 12.9167 21.2502 16.0881 21.2502 20.0001C21.2502 23.9121 24.4215 27.0834 28.3335 27.0834C32.2455 27.0834 35.4168 23.9121 35.4168 20.0001C35.4168 16.0881 32.2455 12.9167 28.3335 12.9167ZM18.7502 20.0001C18.7502 14.7073 23.0408 10.4167 28.3335 10.4167C33.6262 10.4167 37.9168 14.7073 37.9168 20.0001C37.9168 25.2927 33.6262 29.5834 28.3335 29.5834C23.0408 29.5834 18.7502 25.2927 18.7502 20.0001ZM28.3335 15.4167C29.0238 15.4167 29.5835 15.9764 29.5835 16.6667V19.2774L30.9448 20.8481C31.3968 21.3697 31.3405 22.1592 30.8188 22.6114C30.2972 23.0634 29.5077 23.0071 29.0555 22.4854L27.3888 20.5624C27.192 20.3351 27.0835 20.0444 27.0835 19.7437V16.6667C27.0835 15.9764 27.6432 15.4167 28.3335 15.4167ZM2.0835 20.0001C2.0835 19.3097 2.64315 18.7501 3.3335 18.7501H13.3335C14.0238 18.7501 14.5835 19.3097 14.5835 20.0001C14.5835 20.6904 14.0238 21.2501 13.3335 21.2501H3.3335C2.64315 21.2501 2.0835 20.6904 2.0835 20.0001ZM2.0835 28.3334C2.0835 27.6431 2.64315 27.0834 3.3335 27.0834H16.6668C17.3572 27.0834 17.9168 27.6431 17.9168 28.3334C17.9168 29.0237 17.3572 29.5834 16.6668 29.5834H3.3335C2.64315 29.5834 2.0835 29.0237 2.0835 28.3334Z"/>
</svg>
