<svg viewBox="0 0 90 90" fill="none" xmlns="http://www.w3.org/2000/svg">
<path d="M44.9529 7.45886C44.1583 7.47128 43.401 7.79846 42.8474 8.3686C42.2937 8.93873 41.9889 9.70523 41.9998 10.4999V11.9999H25.4998C25.1024 11.9945 24.7079 12.0681 24.3392 12.2164C23.9705 12.3648 23.6349 12.5849 23.352 12.864C23.069 13.1431 22.8444 13.4757 22.691 13.8423C22.5377 14.209 22.4587 14.6024 22.4587 14.9999H17.9998C17.6022 14.9943 17.2075 15.0677 16.8386 15.2159C16.4697 15.3642 16.134 15.5843 15.8509 15.8634C15.5677 16.1425 15.3429 16.4751 15.1895 16.8419C15.036 17.2087 14.957 17.6023 14.957 17.9999C14.957 18.3975 15.036 18.7911 15.1895 19.1578C15.3429 19.5246 15.5677 19.8572 15.8509 20.1364C16.134 20.4155 16.4697 20.6356 16.8386 20.7838C17.2075 20.9321 17.6022 21.0055 17.9998 20.9999H71.9998C72.3973 21.0055 72.792 20.9321 73.1609 20.7838C73.5298 20.6356 73.8656 20.4155 74.1487 20.1364C74.4318 19.8572 74.6566 19.5246 74.81 19.1578C74.9635 18.7911 75.0425 18.3975 75.0425 17.9999C75.0425 17.6023 74.9635 17.2087 74.81 16.8419C74.6566 16.4751 74.4318 16.1425 74.1487 15.8634C73.8656 15.5843 73.5298 15.3642 73.1609 15.2159C72.792 15.0677 72.3973 14.9943 71.9998 14.9999H67.5408C67.5408 14.6024 67.4618 14.209 67.3085 13.8423C67.1551 13.4757 66.9305 13.1431 66.6476 12.864C66.3646 12.5849 66.0291 12.3648 65.6604 12.2164C65.2917 12.0681 64.8972 11.9945 64.4998 11.9999H47.9998V10.4999C48.0053 10.0985 47.9302 9.70012 47.7789 9.3283C47.6277 8.95648 47.4033 8.61879 47.1192 8.33522C46.8351 8.05166 46.497 7.82799 46.1249 7.67746C45.7528 7.52693 45.3542 7.45259 44.9529 7.45886ZM17.9998 26.9999L23.3787 72.703C23.7327 75.724 26.2898 77.9999 29.3318 77.9999H60.6677C63.7097 77.9999 66.2639 75.724 66.6209 72.703L71.9998 26.9999H17.9998Z"/>
</svg>
