<svg viewBox="0 0 256 256" fill="none" xmlns="http://www.w3.org/2000/svg">
<path d="M72.61 83.0599C72.0036 81.5983 71.8443 79.9897 72.1522 78.4375C72.4602 76.8854 73.2215 75.4594 74.3399 74.3399L122.34 26.3399C123.083 25.5961 123.965 25.0061 124.936 24.6035C125.908 24.2009 126.949 23.9937 128 23.9937C129.051 23.9937 130.092 24.2009 131.063 24.6035C132.035 25.0061 132.917 25.5961 133.66 26.3399L181.66 74.3399C182.78 75.4588 183.543 76.8848 183.852 78.4375C184.161 79.9902 184.003 81.5997 183.397 83.0623C182.791 84.5249 181.765 85.7747 180.448 86.6537C179.131 87.5327 177.583 88.0012 176 87.9999H80C78.4177 87.9996 76.8711 87.5301 75.5557 86.6508C74.2403 85.7715 73.2152 84.5219 72.61 83.0599ZM176 168H80C78.4168 167.999 76.8689 168.467 75.5521 169.346C74.2353 170.225 73.209 171.475 72.603 172.938C71.997 174.4 71.8385 176.01 72.1477 177.562C72.4569 179.115 73.2199 180.541 74.3399 181.66L122.34 229.66C123.083 230.404 123.965 230.994 124.936 231.396C125.908 231.799 126.949 232.006 128 232.006C129.051 232.006 130.092 231.799 131.063 231.396C132.035 230.994 132.917 230.404 133.66 229.66L181.66 181.66C182.78 180.541 183.543 179.115 183.852 177.562C184.161 176.01 184.003 174.4 183.397 172.938C182.791 171.475 181.765 170.225 180.448 169.346C179.131 168.467 177.583 167.999 176 168Z"/>
</svg>
